<?xml version="1.0" encoding="UTF-8" standalone="no"?>
<svg
   xmlns:dc="http://purl.org/dc/elements/1.1/"
   xmlns:cc="http://creativecommons.org/ns#"
   xmlns:rdf="http://www.w3.org/1999/02/22-rdf-syntax-ns#"
   xmlns:svg="http://www.w3.org/2000/svg"
   xmlns="http://www.w3.org/2000/svg"
   xmlns:sodipodi="http://sodipodi.sourceforge.net/DTD/sodipodi-0.dtd"
   xmlns:inkscape="http://www.inkscape.org/namespaces/inkscape"
   xml:space="preserve"
   version="1.1"
   style="image-rendering:optimizeQuality;shape-rendering:geometricPrecision;text-rendering:geometricPrecision"
   viewBox="0 0 500.00002 500.00002"
   x="0px"
   y="0px"
   fill-rule="evenodd"
   clip-rule="evenodd"
   id="svg14"
   sodipodi:docname="noun_wood texture_3739704.svg"
   width="500"
   height="500"
   inkscape:version="1.0.1 (1.0.1+r75)"><metadata
     id="metadata18"><rdf:RDF><cc:Work
         rdf:about=""><dc:format>image/svg+xml</dc:format><dc:type
           rdf:resource="http://purl.org/dc/dcmitype/StillImage" /><dc:title></dc:title></cc:Work></rdf:RDF></metadata><sodipodi:namedview
     pagecolor="#ffffff"
     bordercolor="#666666"
     borderopacity="1"
     objecttolerance="10"
     gridtolerance="10"
     guidetolerance="10"
     inkscape:pageopacity="0"
     inkscape:pageshadow="2"
     inkscape:window-width="1600"
     inkscape:window-height="837"
     id="namedview16"
     showgrid="false"
     inkscape:zoom="0.62804942"
     inkscape:cx="309.23236"
     inkscape:cy="394.15424"
     inkscape:window-x="1600"
     inkscape:window-y="30"
     inkscape:window-maximized="1"
     inkscape:current-layer="svg14" /><defs
     id="defs4"><style
       type="text/css"
       id="style2">
   
    .fil0 {fill:black}
   
  </style></defs><path
     class="fil0"
     d="m 34.043023,50.518931 c 1.455536,-1.014645 2.86276,-1.987015 4.239774,-2.935224 7.748772,29.225475 23.282543,82.730033 28.718157,73.755233 6.830753,-11.27588 -7.754809,-53.468322 -10.683996,-80.755095 -0.157033,-1.437422 -0.374455,-2.941271 -0.640199,-4.493443 7.374317,-4.58403 13.492405,-7.86352 19.109204,-10.146479 7.6159,33.181401 11.982509,70.197923 10.726271,99.894497 -2.246721,53.0093 -21.869281,125.5687 -28.428251,115.91746 C 50.627685,232.24355 35.232815,98.636188 29.090575,54.499009 c 1.370986,-1.298503 3.00167,-2.627215 4.952448,-3.980078 z m 66.411117,-29.09864 c 6.09391,0.114748 12.92466,0.791185 21.31967,1.703157 2.03533,0.22346 3.99215,0.368407 5.87649,0.459005 7.30789,37.644635 16.61487,97.291437 9.88679,129.639367 -9.46401,45.49609 63.52419,189.08686 69.64832,213.47465 5.21818,20.77007 17.11009,82.1321 18.54148,117.60249 -3.23722,-0.0363 -6.5167,-0.0665 -9.81431,-0.0966 C 211.0628,436.80382 190.72758,355.632 167.86177,319.3523 142.57409,279.2254 142.83983,203.01207 128.07308,198.71794 c -14.77279,-4.29414 -17.60535,40.68254 -22.7269,62.95647 -5.12155,22.27998 -4.3364,69.85367 9.47004,123.41861 9.21035,35.74821 32.03992,72.52315 47.56162,98.73489 -4.79542,-0.0422 -9.53045,-0.0846 -14.18696,-0.13287 -1.50384,-3.03187 -3.08622,-6.04561 -4.76521,-9.02312 C 125.92299,443.65266 109.32021,414.77748 99.167701,385.59428 63.836223,284.05703 75.788532,268.5293 109.7007,166.32769 120.88599,132.62689 109.25982,62.441041 100.45414,21.420291 Z m 6.75827,461.459369 C 98.442952,482.58373 90.603592,482.1972 84.038584,481.68383 76.93605,449.81302 70.528065,415.94312 57.881206,403.76734 39.841007,386.40358 37.841916,351.92971 26.680782,319.32812 c 1.660882,-6.44422 2.494342,-12.89449 2.711774,-19.29039 9.590839,19.9487 22.865813,41.42541 27.298858,73.13919 4.783339,34.25644 28.663796,74.57661 50.520996,109.70274 z M 18.448854,237.27452 c -2.50038,-9.48213 -4.439083,-17.9798 -4.439083,-25.06422 0,-28.95973 8.08698,-51.10079 2.548693,-72.39632 -5.538277,-21.28948 -11.499342,-26.39896 -1.703157,-37.47553 2.107812,-2.385636 3.708295,-4.65048 4.928286,-6.812643 4.777302,46.553013 -0.869697,93.504623 -1.334739,141.748713 z m 49.029229,242.24714 c -34.890597,-7.62194 -38.091565,-34.00277 -36.430692,-53.10593 1.691081,-19.49574 -42.180354,-37.3185 -14.005761,-84.53586 2.325233,8.28628 4.342457,16.50615 5.846306,24.45422 9.107673,48.20784 22.938287,34.26852 32.064074,71.889 3.188892,13.1421 7.591738,26.98479 12.526073,41.29857 z M 134.54146,294.17331 c 7.06026,9.96528 18.01603,43.98015 29.34023,74.03304 11.31816,30.0529 18.38444,52.92475 18.38444,52.92475 0,0 -28.83894,-21.22908 -32.21506,-52.27851 -3.38216,-31.04943 -15.50961,-74.67928 -15.50961,-74.67928 z M 157.49787,18.9501 c 2.10176,-0.748903 4.14917,-1.552163 6.17847,-2.367509 l -1.93266,11.064489 c 0,0 28.16251,144.96781 28.51885,161.2384 0.35633,16.26457 12.84616,82.61528 25.87956,107.10574 13.03339,24.49045 35.39792,76.0563 44.25796,118.08567 7.85145,-21.6277 -24.60521,-110.85027 -38.48413,-146.33274 -13.87894,-35.47644 -29.03825,-139.0611 -30.16766,-151.2731 -0.89386,-9.65124 -16.4095,-74.993356 -22.88392,-101.978148 4.24581,-1.697119 8.55202,-3.321764 13.28705,-4.571954 6.48045,13.28705 42.27095,115.156482 36.80513,147.516502 -5.59264,33.14515 23.22215,114.1841 36.77494,144.57522 13.5528,30.39111 29.00202,76.26165 15.67873,122.39188 -5.6168,19.45949 -9.50628,40.73086 -11.70469,60.49838 -3.30364,-0.0906 -6.70995,-0.16911 -10.18875,-0.24159 l 0.15703,-0.54356 C 260.26114,450.24183 239.68432,375.02503 230.25052,347.53895 220.81671,320.05891 177.08419,217.54928 169.07572,170.3742 163.02407,134.70451 164.19575,71.029311 157.49787,18.9501 Z m 39.4565,-11.2879492 c 2.85068,-0.1268343 5.88254,-0.096635 9.13787,0.1268246 4.11899,0.2899054 7.8756,0.4710903 11.37855,0.5798013 6.7462,9.0049993 12.72538,16.6088143 16.89872,23.0771963 16.17397,25.046099 24.28511,85.532397 20.32315,131.203617 -3.96196,45.67123 18.61396,90.73246 19.7192,104.67179 1.10523,13.93933 46.2329,98.48123 47.90586,101.96002 1.67296,3.48483 11.66243,40.73086 -11.45706,83.56349 -5.72551,10.60548 -10.27331,22.17125 -13.80646,33.99069 -4.79541,-0.459 -10.37597,-0.8395 -16.57861,-1.15355 13.23873,-29.15904 27.44984,-49.25269 20.0574,-83.9923 C 291.7273,360.28848 292.90502,343.23878 270.83643,298.48556 248.76785,253.73235 231.24705,184.25314 233.63268,161.32693 236.02435,138.39468 221.19117,39.895333 200.07683,12.131432 199.06822,10.808758 198.02941,9.3109477 196.95437,7.6621508 Z m 51.80139,1.2501902 1.1596,0.072435 c -0.31405,1.401176 -0.49525,2.162162 -0.49525,2.162162 0,0 -0.22346,-0.809299 -0.66435,-2.2346359 z m 28.66985,4.765215 c 3.80492,0.996531 7.91787,2.192371 12.42942,3.623746 -0.0966,13.878927 8.28025,33.054567 15.78744,57.726211 11.11885,36.557527 8.22589,59.169667 8.22589,59.169667 -14.51308,57.59938 -1.91454,83.91379 8.11114,132.33905 10.01967,48.43132 30.09521,77.29442 56.77198,106.77356 26.67678,29.47914 38.89483,11.7832 38.89483,11.7832 0,0 8.43728,2.97751 -0.82742,24.07373 -5.55036,12.62874 -13.36557,37.36077 -18.2999,63.00479 -3.98007,-1.69108 -8.0749,-3.03186 -12.26032,-3.64186 0.86969,-20.299 1.37702,-39.6377 -0.10871,-54.35613 -4.578,-45.3934 -20.97543,-23.49392 -59.20592,-87.70663 -38.23049,-64.21271 -41.13552,-139.25437 -40.86978,-182.33461 0.26575,-43.08631 -0.15098,-55.89623 -7.57966,-87.71873 -3.10433,-13.274973 -2.65137,-27.371322 -1.06899,-42.735994 z m 79.99411,464.569764 c -16.31288,12.06102 -16.56654,15.96861 -32.51102,13.42596 1.92662,-4.74106 3.52108,-9.69351 4.38474,-15.1714 4.50552,-28.58529 22.1773,-67.13586 22.1773,-67.13586 0,0 3.52711,32.9519 5.94898,68.8813 z M 338.55815,24.059581 c 17.68386,-1.117318 34.93287,-3.666021 65.13675,6.728079 51.95239,17.889204 53.21466,25.982232 60.87887,62.606184 7.67025,36.623946 4.6867,53.655546 21.72433,73.247906 17.03159,19.59237 -6.81867,40.45908 -7.24144,50.24922 -0.42881,9.79618 10.21895,12.77369 -6.38986,57.06789 -16.60883,44.28817 1.70315,49.82646 -9.79619,80.48935 -11.49934,30.6629 24.69581,40.45909 5.96106,77.93461 -12.01875,24.03749 -14.92378,39.66186 -20.63722,47.77904 -5.45976,-25.92183 -19.84602,-96.48817 -19.78563,-111.56294 0.0785,-18.08851 16.58466,-92.93085 -0.49524,-105.29385 -17.08594,-12.35697 -5.44165,9.88073 -20.24464,14.62783 -14.81507,4.74711 -43.55134,-68.5612 -49.15606,-87.04228 -5.60471,-18.48108 13.49844,-38.00098 26.45936,-28.55508 12.96092,9.44589 11.12489,16.33099 16.63297,-4.31225 5.50205,-20.64929 -21.89344,-49.53052 -21.89344,-49.53052 0,0 -28.95369,-58.124825 -41.15362,-84.433189 z m 88.9689,461.857989 c -6.02749,-1.69712 -12.41735,-5.36918 -19.14543,-8.93856 4.31224,-24.06165 15.25595,-43.15877 15.25595,-43.15877 0,0 10.97994,19.37494 6.11204,31.7017 -1.98702,5.03097 -2.61513,12.18785 -2.22256,20.39563 z M 401.27908,362.03391 c 15.60625,-10.53301 21.19888,-69.49128 21.19888,-69.49128 0,0 -30.21596,8.78153 -44.86795,-9.73579 -14.652,-18.52337 -25.17293,-41.44958 -25.17293,-41.44958 0,0 -22.56987,-45.06726 -12.96092,-81.29864 9.60291,-36.23138 32.36605,-49.29497 32.36605,-49.29497 L 323.50148,56.661181 c 0,0 13.1844,47.259629 12.8643,67.981399 -0.3201,20.7278 -20.94525,46.62548 -2.80236,102.18952 18.13683,55.57009 29.64221,106.66484 49.54259,127.39869 19.90038,20.73384 18.17307,7.80312 18.17307,7.80312 z M 389.88845,176.03328 c 6.08184,-1.4193 15.19555,15.32843 20.35335,37.4091 5.15779,22.08066 4.40284,41.13551 -1.679,42.55481 -6.08185,1.4193 -15.19556,-15.32843 -20.35336,-37.4091 -5.15778,-22.08067 -4.40284,-41.13551 1.67901,-42.55481 z"
     id="path6"
     style="stroke-width:0.603957" /></svg>
